{
  "source": "C:\\Users\\Peter\\Desktop\\stuff\\MIUN\\quantitative_research\\video_compression\\videos\\BVI-HD\\BVI-HD_CDVL_videos\\ORIG\\Toys_1920x1080_30fps.mp4",
  "output": "C:\\Users\\Peter\\Desktop\\stuff\\MIUN\\quantitative_research\\video_compression\\compressed_videos\\BVI-HD\\vp9\\2.5\\Toys_1920x1080_30fps_vp9.webm",
  "codec": "vp9",
  "ok": "Input #0, mov,mp4,m4a,3gp,3g2,mj2, from 'C:\\Users\\Peter\\Desktop\\stuff\\MIUN\\quantitative_research\\video_compression\\videos\\BVI-HD\\BVI-HD_CDVL_videos\\ORIG\\Toys_1920x1080_30fps.mp4':\n  Metadata:\n    major_brand     : isom\n    minor_version   : 512\n    compatible_brands: isomiso2avc1mp41\n    encoder         : Lavf54.28.101\n  Duration: 00:00:05.00, start: 0.000000, bitrate: 270887 kb/s\n  Stream #0:0[0x1](und): Video: h264 (High 4:4:4 Predictive) (avc1 / 0x31637661), yuv420p(progressive), 1920x1080, 270883 kb/s, 30 fps, 30 tbr, 30 tbn (default)\n    Metadata:\n      handler_name    : VideoHandler\n      vendor_id       : [0][0][0][0]\n[out#0/webm @ 000001bd203b9700] Codec AVOption b:a (set bitrate (in bits/s)) has not been used for any stream. The most likely reason is either wrong type (e.g. a video option with no video streams) or that it is a private option of some decoder which was not actually used for any stream.\nStream mapping:\n  Stream #0:0 -> #0:0 (h264 (native) -> vp9 (libvpx-vp9))\nPress [q] to stop, [?] for help\n[libvpx-vp9 @ 000001bd20e80440] v1.15.2-100-g40561f514\nOutput #0, webm, to 'C:\\Users\\Peter\\Desktop\\stuff\\MIUN\\quantitative_research\\video_compression\\compressed_videos\\BVI-HD\\vp9\\2.5\\Toys_1920x1080_30fps_vp9.webm':\n  Metadata:\n    major_brand     : isom\n    minor_version   : 512\n    compatible_brands: isomiso2avc1mp41\n    encoder         : Lavf62.3.100\n  Stream #0:0(und): Video: vp9, yuv420p(tv, progressive), 1920x1080, q=2-31, 2500 kb/s, 30 fps, 1k tbn (default)\n    Metadata:\n      encoder         : Lavc62.11.100 libvpx-vp9\n      handler_name    : VideoHandler\n      vendor_id       : [0][0][0][0]\n    Side data:\n      cpb: bitrate max/min/avg: 0/0/0 buffer size: 2500000 vbv_delay: N/A\nframe=    0 fps=0.0 q=0.0 size=       0KiB time=N/A bitrate=N/A speed=N/A elapsed=0:00:00.52    \nframe=    4 fps=3.5 q=54.0 size=       1KiB time=00:00:00.13 bitrate=  38.0kbits/s speed=0.116x elapsed=0:00:01.14    \nframe=    9 fps=5.4 q=51.0 size=       1KiB time=00:00:00.30 bitrate=  16.9kbits/s speed=0.179x elapsed=0:00:01.67    \nframe=   14 fps=6.4 q=49.0 size=       1KiB time=00:00:00.46 bitrate=  10.9kbits/s speed=0.212x elapsed=0:00:02.19    \nframe=   18 fps=6.6 q=50.0 size=       1KiB time=00:00:00.60 bitrate=   8.5kbits/s speed=0.219x elapsed=0:00:02.73    \nframe=   22 fps=6.7 q=50.0 size=       1KiB time=00:00:00.73 bitrate=   6.9kbits/s speed=0.225x elapsed=0:00:03.26    \nframe=   27 fps=7.1 q=49.0 size=       1KiB time=00:00:00.90 bitrate=   5.6kbits/s speed=0.237x elapsed=0:00:03.79    \nframe=   31 fps=7.2 q=35.0 size=       1KiB time=00:00:01.03 bitrate=   4.9kbits/s speed=0.238x elapsed=0:00:04.33    \nframe=   35 fps=7.2 q=48.0 size=       1KiB time=00:00:01.16 bitrate=   4.3kbits/s speed=0.239x elapsed=0:00:04.88    \nframe=   39 fps=7.2 q=49.0 size=       1KiB time=00:00:01.30 bitrate=   3.9kbits/s speed=0.239x elapsed=0:00:05.43    \nframe=   41 fps=6.8 q=41.0 size=       1KiB time=00:00:01.36 bitrate=   3.7kbits/s speed=0.228x elapsed=0:00:05.98    \nframe=   43 fps=6.5 q=46.0 size=       1KiB time=00:00:01.43 bitrate=   3.5kbits/s speed=0.218x elapsed=0:00:06.58    \nframe=   45 fps=6.2 q=47.0 size=       1KiB time=00:00:01.50 bitrate=   3.4kbits/s speed=0.207x elapsed=0:00:07.22    \nframe=   47 fps=6.0 q=39.0 size=       1KiB time=00:00:01.53 bitrate=   3.3kbits/s speed=0.196x elapsed=0:00:07.83    \nframe=   49 fps=5.9 q=46.0 size=       1KiB time=00:00:01.63 bitrate=   3.1kbits/s speed=0.195x elapsed=0:00:08.37    \nframe=   52 fps=5.8 q=47.0 size=       1KiB time=00:00:01.73 bitrate=   2.9kbits/s speed=0.194x elapsed=0:00:08.92    \nframe=   55 fps=5.8 q=45.0 size=       1KiB time=00:00:01.83 bitrate=   2.8kbits/s speed=0.194x elapsed=0:00:09.45    \nframe=   58 fps=5.8 q=46.0 size=       1KiB time=00:00:01.93 bitrate=   2.6kbits/s speed=0.193x elapsed=0:00:09.99    \nframe=   61 fps=5.8 q=45.0 size=       1KiB time=00:00:02.03 bitrate=   2.5kbits/s speed=0.192x elapsed=0:00:10.56    \nframe=   64 fps=5.8 q=47.0 size=       1KiB time=00:00:02.13 bitrate=   2.4kbits/s speed=0.192x elapsed=0:00:11.11    \nframe=   67 fps=5.7 q=46.0 size=       1KiB time=00:00:02.23 bitrate=   2.3kbits/s speed=0.192x elapsed=0:00:11.65    \nframe=   69 fps=5.7 q=46.0 size=       1KiB time=00:00:02.30 bitrate=   2.2kbits/s speed=0.189x elapsed=0:00:12.18    \nframe=   72 fps=5.7 q=47.0 size=       1KiB time=00:00:02.40 bitrate=   2.1kbits/s speed=0.189x elapsed=0:00:12.71    \nframe=   75 fps=5.6 q=46.0 size=       1KiB time=00:00:02.50 bitrate=   2.0kbits/s speed=0.188x elapsed=0:00:13.28    \nframe=   77 fps=5.5 q=38.0 size=       1KiB time=00:00:02.56 bitrate=   2.0kbits/s speed=0.185x elapsed=0:00:13.87    \nframe=   80 fps=5.5 q=46.0 size=       1KiB time=00:00:02.66 bitrate=   1.9kbits/s speed=0.184x elapsed=0:00:14.45    \nframe=   82 fps=5.4 q=46.0 size=       1KiB time=00:00:02.73 bitrate=   1.9kbits/s speed=0.182x elapsed=0:00:15.04    \nframe=   85 fps=5.4 q=45.0 size=       1KiB time=00:00:02.83 bitrate=   1.8kbits/s speed=0.182x elapsed=0:00:15.60    \nframe=   88 fps=5.4 q=47.0 size=       1KiB time=00:00:02.93 bitrate=   1.7kbits/s speed=0.182x elapsed=0:00:16.15    \nframe=   91 fps=5.4 q=45.0 size=       1KiB time=00:00:03.03 bitrate=   1.7kbits/s speed=0.181x elapsed=0:00:16.74    \nframe=   93 fps=5.4 q=46.0 size=       1KiB time=00:00:03.10 bitrate=   1.6kbits/s speed=0.179x elapsed=0:00:17.29    \nframe=   96 fps=5.4 q=46.0 size=       1KiB time=00:00:03.20 bitrate=   1.6kbits/s speed=0.18x elapsed=0:00:17.82    \nframe=  100 fps=5.4 q=46.0 size=       1KiB time=00:00:03.33 bitrate=   1.5kbits/s speed=0.182x elapsed=0:00:18.35    \nframe=  102 fps=5.4 q=46.0 size=       1KiB time=00:00:03.40 bitrate=   1.5kbits/s speed=0.179x elapsed=0:00:18.98    \nframe=  105 fps=5.4 q=46.0 size=       1KiB time=00:00:03.50 bitrate=   1.4kbits/s speed=0.179x elapsed=0:00:19.53    \nframe=  107 fps=5.3 q=36.0 size=       1KiB time=00:00:03.56 bitrate=   1.4kbits/s speed=0.178x elapsed=0:00:20.07    \nframe=  111 fps=5.4 q=46.0 size=       1KiB time=00:00:03.66 bitrate=   1.4kbits/s speed=0.178x elapsed=0:00:20.60    \nframe=  113 fps=5.3 q=36.0 size=       1KiB time=00:00:03.76 bitrate=   1.3kbits/s speed=0.178x elapsed=0:00:21.17    \nframe=  116 fps=5.3 q=45.0 size=       1KiB time=00:00:03.86 bitrate=   1.3kbits/s speed=0.178x elapsed=0:00:21.74    \nframe=  118 fps=5.3 q=46.0 size=       1KiB time=00:00:03.93 bitrate=   1.3kbits/s speed=0.176x elapsed=0:00:22.31    \nframe=  122 fps=5.3 q=47.0 size=       1KiB time=00:00:04.06 bitrate=   1.2kbits/s speed=0.178x elapsed=0:00:22.86    \nframe=  125 fps=5.3 q=47.0 size=       1KiB time=00:00:04.16 bitrate=   1.2kbits/s speed=0.178x elapsed=0:00:23.37    \nframe=  126 fps=5.3 q=45.0 size=       1KiB time=00:00:04.20 bitrate=   1.2kbits/s speed=0.176x elapsed=0:00:23.91    \nframe=  126 fps=5.1 q=45.0 size=       1KiB time=00:00:04.20 bitrate=   1.2kbits/s speed=0.172x elapsed=0:00:24.48    \nframe=  126 fps=5.0 q=45.0 size=       1KiB time=00:00:04.20 bitrate=   1.2kbits/s speed=0.168x elapsed=0:00:25.05    \nframe=  126 fps=4.9 q=45.0 size=       1KiB time=00:00:04.20 bitrate=   1.2kbits/s speed=0.164x elapsed=0:00:25.60    \nframe=  126 fps=4.8 q=45.0 size=       1KiB time=00:00:04.20 bitrate=   1.2kbits/s speed=0.161x elapsed=0:00:26.14    \nframe=  126 fps=4.7 q=45.0 size=       1KiB time=00:00:04.20 bitrate=   1.2kbits/s speed=0.157x elapsed=0:00:26.72    \nframe=  126 fps=4.6 q=45.0 size=       1KiB time=00:00:04.20 bitrate=   1.2kbits/s speed=0.154x elapsed=0:00:27.24    \n[out#0/webm @ 000001bd203b9700] video:1662KiB audio:0KiB subtitle:0KiB other streams:0KiB global headers:0KiB muxing overhead: 0.103933%\nframe=  150 fps=5.4 q=46.0 Lsize=    1664KiB time=00:00:05.00 bitrate=2726.1kbits/s speed=0.181x elapsed=0:00:27.62    \n",
  "seconds": 27.969378232955933,
  "probe_out": {}
}